<svg width="380" height="90" viewBox="0 0 380 90" fill="none" xmlns="http://www.w3.org/2000/svg">
<rect width="380" height="89.3477" rx="12" fill="black"/>
<circle cx="59.1327" cy="44.0392" r="7.27534" fill="#FB9C2D"/>
<path d="M46.7676 31.2326C50.4888 28.5492 54.4062 29.6899 55.8998 30.5957C35.9789 46.2986 34.7047 59.8449 38.7831 64.1593C41.8314 67.3838 49.7443 65.2119 53.0071 63.5761L58.4109 67.0858C55.5136 68.4341 41.6762 75.6781 34.2285 67.2481C24.6938 56.4557 42.1162 34.5867 46.7676 31.2326Z" fill="#FB9C2D"/>
<path d="M79.7035 26.1713C84.3207 36.7557 70.4812 52.2722 61.9894 58.7352C63.0597 59.8674 66.2763 61.3577 70.5809 58.2618C75.9617 54.392 93.0992 32.8028 83.3903 22.1646C75.6232 13.6541 60.8723 20.8388 54.3967 25.5118C56.0215 26.2008 58.4495 27.8377 59.5315 28.5532C70.8991 20.8664 77.9013 23.5293 79.7035 26.1713Z" fill="#FB9C2D"/>
<path d="M45.3338 56.6803C42.6504 52.9591 43.7911 49.0417 44.6968 47.5481C60.3998 67.469 73.9461 68.7432 78.2604 64.6648C81.485 61.6164 79.3131 53.7036 77.6773 50.4408L81.3074 45.2708C82.6557 48.1681 89.7793 61.7717 81.3492 69.2194C70.5569 78.7541 48.6879 61.3317 45.3338 56.6803Z" fill="#FB9C2D"/>
<path d="M40.2725 23.7444C50.8569 19.1272 66.3733 32.9667 72.8364 41.4585C73.9685 40.3882 75.4588 37.1716 72.363 32.867C68.4932 27.4862 46.9039 10.3487 36.2658 20.0576C29.499 26.2333 32.5444 36.8171 36.4254 44.1499C37.3356 42.7037 38.9999 40.0867 39.8045 38.9844C35.7861 30.518 38.0368 25.2694 40.2725 23.7444Z" fill="#FB9C2D"/>
<path d="M92.5183 44.3767C92.5183 62.9161 77.4891 77.9453 58.9496 77.9453C40.4102 77.9453 25.381 62.9161 25.381 44.3767C25.381 25.8372 40.4102 10.808 58.9496 10.808C77.4891 10.808 92.5183 25.8372 92.5183 44.3767ZM29.185 44.3767C29.185 60.8152 42.5111 74.1413 58.9496 74.1413C75.3882 74.1413 88.7142 60.8152 88.7142 44.3767C88.7142 27.9381 75.3882 14.612 58.9496 14.612C42.5111 14.612 29.185 27.9381 29.185 44.3767Z" fill="#FB9C2D"/>
<rect x="107.855" y="20.2858" width="48.7763" height="48.7763" rx="3.66739" fill="#FB9C2D"/>
<path d="M128.299 59.203C126.446 59.203 124.846 58.7431 123.501 57.8234C122.169 56.8899 121.14 55.5651 120.412 53.8491C119.698 52.1193 119.341 50.0601 119.341 47.6714C119.341 45.2965 119.705 43.2579 120.433 41.5556C121.16 39.8396 122.197 38.5217 123.542 37.6019C124.901 36.6821 126.507 36.2222 128.361 36.2222C129.445 36.2222 130.427 36.4076 131.305 36.7782C132.198 37.1351 132.966 37.6294 133.612 38.2609C134.257 38.8923 134.751 39.6268 135.094 40.4642H135.218V32.2068C135.218 31.0262 135.534 30.1407 136.165 29.5504C136.81 28.9601 137.627 28.6649 138.615 28.6649C139.604 28.6649 140.414 28.9601 141.045 29.5504C141.691 30.1407 142.013 31.0262 142.013 32.2068V55.8465C142.013 56.9997 141.697 57.8714 141.066 58.4617C140.434 59.0383 139.624 59.3266 138.636 59.3266C137.648 59.3266 136.831 59.0383 136.186 58.4617C135.54 57.8851 135.218 57.0134 135.218 55.8465V54.9611H135.094C134.806 55.771 134.339 56.4986 133.694 57.1438C133.049 57.7753 132.273 58.2764 131.367 58.647C130.461 59.0177 129.438 59.203 128.299 59.203ZM130.77 53.8285C131.69 53.8285 132.486 53.5882 133.159 53.1078C133.831 52.6136 134.346 51.9066 134.703 50.9868C135.074 50.067 135.259 48.9825 135.259 47.7332C135.259 46.4702 135.074 45.3789 134.703 44.4591C134.346 43.5393 133.831 42.8323 133.159 42.3381C132.486 41.8302 131.69 41.5762 130.77 41.5762C129.836 41.5762 129.033 41.8302 128.361 42.3381C127.702 42.8323 127.187 43.5393 126.816 44.4591C126.459 45.3651 126.281 46.4496 126.281 47.7126C126.281 48.9756 126.459 50.067 126.816 50.9868C127.173 51.9066 127.688 52.6136 128.361 53.1078C129.033 53.5882 129.836 53.8285 130.77 53.8285Z" fill="black"/>
<path d="M340.859 59.674L336.551 47.3817H325.625L321.317 59.674H316.327L328.462 24.7935H333.715L345.849 59.674H340.859ZM331.088 31.57L327.096 42.9691H335.028L331.088 31.57ZM350.556 59.674V24.7409H354.969V59.674H350.556Z" fill="white"/>
<path d="M176.223 29.4686V39.8697H186.046V44.5975H176.223V59.6738H171.705V24.7408H190.827V29.4686H176.223ZM207.625 59.5162V57.3099C206.925 58.0454 206.032 58.6582 204.946 59.1485C203.896 59.6388 202.845 59.884 201.794 59.884C200.394 59.884 199.045 59.6213 197.75 59.096C196.489 58.5357 195.368 57.7652 194.388 56.7846C193.442 55.8041 192.689 54.6834 192.129 53.4227C191.603 52.1269 191.341 50.7611 191.341 49.3253V33.4084H195.964V49.3253C195.964 50.9362 196.541 52.3195 197.697 53.4752C198.853 54.6309 200.219 55.2087 201.794 55.2087C202.53 55.2087 203.265 55.0511 204.001 54.7359C204.736 54.4207 205.367 54.0005 205.892 53.4752C207.048 52.3195 207.625 50.9362 207.625 49.3253V33.4084H212.196V59.5162H207.625ZM230.189 41.2355C230.084 40.6051 229.857 40.0098 229.507 39.4495C228.841 38.2938 227.528 37.7159 225.567 37.7159C224.516 37.7159 223.711 37.8385 223.15 38.0837C222.415 38.3638 221.855 38.7666 221.469 39.2919C221.119 39.8172 220.944 40.395 220.944 41.0254C220.944 41.7958 221.224 42.4962 221.785 43.1266C222.38 43.792 223.343 44.1422 224.674 44.1772C227.02 44.2823 228.911 44.5625 230.347 45.0177C231.818 45.473 232.939 46.261 233.709 47.3816C234.514 48.5023 234.917 50.0782 234.917 52.1094C234.917 54.1756 234.129 55.9616 232.553 57.4675C231.783 58.203 230.872 58.7983 229.822 59.2536C228.806 59.7088 227.738 59.9365 226.617 59.9365H225.829C223.028 59.9365 220.769 59.131 219.053 57.5201C217.652 56.2243 216.777 54.4032 216.426 52.0569H221.102C221.277 52.8973 221.627 53.5803 222.152 54.1056C222.958 54.876 224.078 55.2612 225.514 55.2612C225.899 55.2612 226.18 55.2437 226.355 55.2087C227.58 55.1387 228.543 54.806 229.244 54.2106C229.944 53.5803 230.295 52.8098 230.295 51.8993C230.295 50.6385 229.909 49.8155 229.139 49.4303C228.368 49.0451 226.88 48.8525 224.674 48.8525C221.907 48.8525 219.788 47.977 218.317 46.2259C217.127 44.8952 216.531 43.2142 216.531 41.183C216.531 40.7277 216.549 40.3775 216.584 40.1324C216.864 37.856 217.792 36.1225 219.368 34.9318C220.979 33.7061 223.098 33.0932 225.724 33.0932C227.65 33.0932 229.331 33.5135 230.767 34.354C231.783 34.9843 232.658 35.8598 233.394 36.9805C234.094 38.1012 234.55 39.502 234.76 41.183L234.655 41.2355H230.189ZM242.043 29.6262C241.377 29.6262 240.799 29.3986 240.309 28.9433C239.854 28.453 239.626 27.8752 239.626 27.2098C239.626 26.5444 239.854 25.984 240.309 25.5288C240.799 25.0385 241.377 24.7933 242.043 24.7933C242.708 24.7933 243.268 25.0385 243.724 25.5288C244.214 25.984 244.459 26.5444 244.459 27.2098C244.459 27.8752 244.214 28.453 243.724 28.9433C243.268 29.3986 242.708 29.6262 242.043 29.6262ZM239.889 59.6738V33.4084H244.301V59.6738H239.889ZM260.907 59.9365C259.121 59.9365 257.422 59.5863 255.811 58.8859C254.2 58.1855 252.782 57.2224 251.556 55.9967C250.331 54.7709 249.368 53.3526 248.667 51.7417C247.967 50.1307 247.617 48.4322 247.617 46.6462C247.617 44.8251 247.967 43.0916 248.667 41.4456C249.368 39.7997 250.331 38.3638 251.556 37.1381C252.782 35.9124 254.2 34.9668 255.811 34.3014C257.422 33.601 259.121 33.2508 260.907 33.2508C262.728 33.2508 264.461 33.601 266.107 34.3014C267.753 34.9668 269.189 35.9124 270.415 37.1381C271.641 38.3638 272.586 39.7997 273.252 41.4456C273.952 43.0916 274.302 44.8251 274.302 46.6462C274.302 48.4322 273.952 50.1307 273.252 51.7417C272.586 53.3526 271.641 54.7709 270.415 55.9967C269.189 57.2224 267.753 58.1855 266.107 58.8859C264.461 59.5863 262.728 59.9365 260.907 59.9365ZM260.907 37.9261C258.56 37.9261 256.547 38.7666 254.866 40.4475C254.06 41.253 253.43 42.1986 252.975 43.2842C252.519 44.3698 252.292 45.4905 252.292 46.6462C252.292 47.8019 252.519 48.905 252.975 49.9556C253.43 51.0062 254.06 51.9343 254.866 52.7398C255.671 53.5452 256.582 54.1756 257.597 54.6309C258.648 55.0861 259.751 55.3138 260.907 55.3138C262.063 55.3138 263.183 55.0861 264.269 54.6309C265.354 54.1756 266.283 53.5452 267.053 52.7398C267.823 51.9343 268.436 51.0062 268.892 49.9556C269.347 48.905 269.574 47.8019 269.574 46.6462C269.574 45.4905 269.347 44.3698 268.892 43.2842C268.436 42.1986 267.823 41.253 267.053 40.4475C266.283 39.6421 265.354 39.0292 264.269 38.609C263.218 38.1537 262.098 37.9261 260.907 37.9261ZM295.256 59.6738V43.9146C295.256 42.3387 294.678 40.9728 293.523 39.8172C292.402 38.6965 291.036 38.1362 289.425 38.1362C287.849 38.1362 286.484 38.714 285.328 39.8697C284.803 40.395 284.382 41.0254 284.067 41.7608C283.752 42.4612 283.594 43.1791 283.594 43.9146V59.6738H279.024V34.0388H283.594V36.1925C284.26 35.3871 285.135 34.7217 286.221 34.1964C287.307 33.6711 288.375 33.4084 289.425 33.4084C290.826 33.4084 292.157 33.6886 293.418 34.2489C294.713 34.7742 295.852 35.5272 296.832 36.5077C297.778 37.4533 298.513 38.5739 299.038 39.8697C299.599 41.1304 299.879 42.4787 299.879 43.9146V59.6738H295.256Z" fill="white"/>
</svg>
